Coordinates
version=1
nRows=16
nColumns=36
inDegrees=yes

Units are S.I. units (second, meters, Newtons, ...)
If the header above contains a line with 'inDegrees', this indicates whether rotational values are in degrees (yes) or radians (no).

endheader
time	pelvis_tilt	pelvis_list	pelvis_rotation	pelvis_tx	pelvis_ty	pelvis_tz	hip_flexion_r	hip_adduction_r	hip_rotation_r	knee_angle_r	knee_angle_r_beta	ankle_angle_r	subtalar_angle_r	mtp_angle_r	hip_flexion_l	hip_adduction_l	hip_rotation_l	knee_angle_l	knee_angle_l_beta	ankle_angle_l	subtalar_angle_l	mtp_angle_l	lumbar_extension	lumbar_bending	lumbar_rotation	arm_flex_r	arm_add_r	arm_rot_r	elbow_flex_r	pro_sup_r	arm_flex_l	arm_add_l	arm_rot_l	elbow_flex_l	pro_sup_l
      0.00000000	     -2.06602451	     -1.92217973	     -0.70828949	     -0.94918129	      1.26025859	     -0.08629238	      6.72295629	      1.99127483	      0.95594554	     11.52773356	      0.20119691	      0.26241716	    -12.02662744	     -6.28247744	      3.70843848	     -2.52004799	      1.14624077	      8.30396858	      0.14493159	      7.05191118	     -3.47850587	     -6.28247744	     -9.22665199	      1.03058354	     -4.25392899	     15.58771758	     -0.59666844	     29.01512262	     93.21697583	     96.78187605	     20.01842881	     -4.18416799	     29.80257776	     90.89029393	     90.85013924
      0.00416670	     -3.63720998	     -1.88906977	     -0.38488477	     -0.94987091	      1.25985178	     -0.08814053	      8.58842200	      2.08347751	      1.62322687	     11.94418305	      0.20846532	      2.18623524	    -10.26253237	     -6.55105019	      5.44945996	     -2.12335551	      3.45774110	      8.09171208	      0.14122702	      6.13520997	     -3.65397675	     -6.55105019	     -7.29504819	      0.92350831	     -3.68875832	     14.14112609	     -0.48190021	     26.21774130	     93.54151364	     92.77471143	     21.06322983	     -4.16446321	     31.21068005	     90.28013621	     87.30226346
      0.00833330	     -4.68611393	     -1.53989269	     -0.64736056	     -0.94880062	      1.25827533	     -0.08645541	      9.46504211	      1.93869175	      1.24073859	     11.31841689	      0.19754364	      2.28851041	    -10.30322349	     -6.64940489	      6.57807564	     -1.91108609	      3.58843107	      8.08366563	      0.14108658	      5.70165935	     -3.72214731	     -6.64940489	     -6.10363013	      0.30276779	     -3.57775452	     13.39793630	     -0.57736100	     26.80581410	     94.37601880	     91.03237542	     21.51575997	     -4.49948418	     31.25262598	     90.76704097	     84.92021314
      0.01250000	     -4.70327473	     -1.40813722	     -0.74068420	     -0.94844702	      1.25795256	     -0.08682235	      9.41632708	      1.84532974	      1.31855800	     11.19908163	      0.19546085	      2.45660749	    -10.25079894	     -6.69640374	      6.34048844	     -1.75396825	      4.08973674	      7.54744609	      0.13172778	      5.26045619	     -4.53880137	     -6.69640374	     -6.20395807	     -0.00065534	     -3.33443763	     13.41587896	     -0.63665855	     27.18055381	     95.40772665	     90.10777871	     22.12047507	     -4.28137593	     31.34257644	     91.54638394	     83.42814053
      0.01666670	     -5.01543104	     -1.30326874	     -0.68325542	     -0.94915714	      1.25889098	     -0.08515351	      9.71422839	      1.85978638	      1.56326369	     11.11232632	      0.19394668	      2.73949413	     -9.90569541	     -6.75472682	      6.59536353	     -1.62055283	      4.56654622	      7.33344775	      0.12799281	      5.04225465	     -5.02595747	     -6.75472682	     -6.08321766	     -0.16556008	     -3.03973471	     13.84206139	     -0.04864899	     27.25969852	     96.22288586	     89.35091169	     22.60508779	     -3.96876394	     31.74468271	     92.50435179	     82.32369949
      0.02083330	     -5.15261785	     -1.24062513	     -0.58025664	     -0.94815923	      1.25909866	     -0.08604065	      9.80263866	      1.80401200	      1.60436340	     11.13058577	      0.19426537	      2.72075733	     -9.98940524	     -6.82636340	      6.73763288	     -1.53757297	      5.03036967	      7.30025543	      0.12741349	      5.03813203	     -5.54365420	     -6.82636340	     -6.01965758	     -0.25066186	     -2.79990898	     14.44779019	      0.24345722	     26.93209121	     96.98801875	     87.88323951	     22.73305495	     -3.72391757	     32.33783993	     93.80364195	     80.47094791
      0.02500000	     -5.25072722	     -1.24909882	     -0.54754698	     -0.94797805	      1.25761385	     -0.08542025	      9.94361386	      1.80964491	      1.68105902	     11.32060448	      0.19758182	      2.72631085	    -10.24078936	     -6.89024937	      6.83146756	     -1.54411360	      5.14386041	      7.21608935	      0.12594452	      5.10390452	     -5.86888339	     -6.89024937	     -6.00087951	     -0.32735003	     -2.56248304	     15.09608148	      0.59397004	     26.69755824	     97.77634570	     87.28362448	     23.01844246	     -3.44839656	     32.64934467	     95.20892040	     79.36449622
      0.02916670	     -5.40254236	     -1.17186744	     -0.38560815	     -0.94931679	      1.25403515	     -0.08585931	     10.23089953	      1.72530769	      1.73935864	     11.60666934	      0.20257460	      2.56588902	    -10.89141304	     -7.07788647	      7.08142373	     -1.41928476	      5.26293020	      7.34963326	      0.12827530	      5.07166410	     -6.66618454	     -7.07788647	     -5.95459579	     -0.41350199	     -2.43379996	     15.58503339	      0.92494689	     26.47121719	     99.09075865	     88.88299055	     23.57708068	     -3.28404649	     32.82538980	     96.46585360	     76.27242577
      0.03333330	     -5.47534570	     -1.16011611	     -0.37575168	     -0.94809934	      1.25969088	     -0.08506319	     10.28779706	      1.68111955	      1.63435449	     11.62462307	      0.20288795	      2.41096377	    -10.90049035	     -7.07956250	      7.12537453	     -1.42496739	      5.45963351	      7.32876883	      0.12791115	      5.04069877	     -6.59615228	     -7.07956250	     -5.74753852	     -0.48596039	     -2.31083937	     15.89652413	      1.23847833	     26.53768219	     99.26778490	     88.87350178	     23.90216941	     -3.08417407	     32.73824476	     96.69237030	     76.24387918
      0.03750000	     -5.59104023	     -1.18434568	     -0.18572956	     -0.94844850	      1.25482808	     -0.08583188	     10.48692056	      1.70992785	      1.59196409	     11.72580754	      0.20465395	      1.81336732	    -11.75184720	     -7.10916021	      7.31644861	     -1.40919296	      5.68396079	      7.41599971	      0.12943361	      4.79581711	     -7.20628211	     -7.10916021	     -5.84400237	     -0.47492313	     -2.53777427	     16.33846091	      1.25233056	     27.60580319	    100.71254529	     89.11679221	     24.11064846	     -2.95270374	     32.55967839	     98.46155251	     75.79922844
      0.04166670	     -5.74856345	     -1.11294695	     -0.09229003	     -0.94930737	      1.25289358	     -0.08579455	     10.78083462	      1.66440968	      1.55632873	     11.88354006	      0.20740690	      1.75424929	    -12.10788569	     -7.16869188	      7.60612096	     -1.26899519	      5.97281974	      7.64108274	      0.13336205	      4.82292337	     -7.35253625	     -7.16869188	     -5.77874591	     -0.56948857	     -2.54996896	     16.81205801	      1.29870403	     28.01370785	    101.50305754	     87.36616345	     24.57508275	     -2.62915699	     32.53701963	     99.06397626	     74.14419056
      0.04583330	     -5.83546640	     -1.10024547	     -0.11731544	     -0.94873125	      1.25845726	     -0.08485466	     10.91248369	      1.69596747	      1.53599950	     11.84126104	      0.20666899	      1.77189719	    -12.10975944	     -7.16991390	      7.71987307	     -1.28520077	      6.05204746	      7.62703686	      0.13311691	      4.77567424	     -7.28314811	     -7.16991390	     -5.66488185	     -0.59700213	     -2.61459736	     17.08383777	      1.32388478	     27.92828115	    101.54783903	     87.37393621	     25.00329406	     -2.45226178	     32.41848147	     99.20912129	     74.11646261
      0.05000000	     -5.83575998	     -1.09699232	     -0.03189512	     -0.94798802	      1.26228591	     -0.08516080	     10.87632240	      1.65662619	      1.19911178	     11.60408342	      0.20252946	      1.40198080	    -12.04779627	     -7.21308787	      7.74199830	     -1.27173004	      6.10209423	      7.64039668	      0.13335008	      4.58494778	     -6.99449012	     -7.21308787	     -5.86044706	     -0.60898399	     -2.74284918	     17.26495722	      1.45395835	     27.62006764	    101.84891327	     85.95653815	     25.32569255	     -2.13765456	     32.38087792	     99.70022897	     72.79463881
      0.05416670	     -5.90176780	     -1.08233329	     -0.06974657	     -0.94809538	      1.26443789	     -0.08485280	     10.88014691	      1.63596290	      1.11615653	     11.36537812	      0.19836327	      0.91614442	    -12.02200655	     -7.22507897	      7.78029385	     -1.24159755	      6.24270829	      7.56577411	      0.13204767	      4.20751336	     -7.03764756	     -7.22507897	     -5.89972386	     -0.62780961	     -2.78248420	     17.46353543	      1.55239630	     27.31894512	    101.88423036	     86.00574656	     25.59435502	     -1.99072878	     32.31371891	     99.89543377	     72.49809759
      0.05833330	     -5.89299776	     -1.09140139	     -0.12998006	     -0.94748299	      1.25892929	     -0.08496982	     10.85877286	      1.65668873	      1.11473004	     11.24129008	      0.19619752	      0.54703993	    -12.41851782	     -7.21060536	      7.77250441	     -1.23290447	      6.33052384	      7.57789125	      0.13225915	      4.26090505	     -7.04703375	     -7.21060536	     -5.98708545	     -0.60943456	     -2.81039920	     17.71424442	      1.61023113	     27.05142229	    102.24012801	     86.62575568	     25.83118645	     -1.82461902	     32.43239576	    100.35300071	     72.37453629
      0.06250000	     -6.01369908	     -1.10721556	     -0.14315204	     -0.94788558	      1.26192642	     -0.08462481	     10.96234857	      1.65909783	      0.92702525	     11.18816342	      0.19527029	      0.49553055	    -12.15047137	     -7.34594052	      7.90596199	     -1.25116768	      6.55644850	      7.56268571	      0.13199377	      4.36429566	     -6.78889824	     -7.34594052	     -6.02743068	     -0.59738987	     -2.57451097	     17.91967491	      1.69055568	     26.38559457	    102.60149817	     91.07095358	     26.31888837	     -1.57613442	     32.83067933	    100.43778077	     70.50556972
